<svg width="32" height="32" viewBox="0 0 32 32" fill="none" xmlns="http://www.w3.org/2000/svg">
<path d="M3.45802 25.2185L15.458 30.5518H15.466C15.6337 30.6274 15.8155 30.6664 15.9993 30.6664C16.1832 30.6664 16.365 30.6274 16.5327 30.5518H16.5433L28.5434 25.2185C28.7786 25.1134 28.9784 24.9423 29.1185 24.726C29.2585 24.5098 29.3329 24.2575 29.3327 23.9998V7.99984C29.3264 7.74332 29.249 7.49359 29.1091 7.27843C28.9693 7.06328 28.7725 6.89114 28.5407 6.78118L16.5407 1.44784C16.3703 1.37213 16.1858 1.33301 15.9993 1.33301C15.8129 1.33301 15.6284 1.37213 15.458 1.44784L3.45802 6.78118C3.22627 6.89126 3.02956 7.06343 2.88975 7.27856C2.74994 7.49369 2.6725 7.74336 2.66602 7.99984V23.9998C2.66598 24.2578 2.74079 24.5103 2.88137 24.7266C3.02195 24.9429 3.22226 25.1138 3.45802 25.2185ZM5.33268 10.0518L14.666 14.1998V27.2812L5.33268 23.1332V10.0518ZM26.666 23.1332L17.3327 27.2812V14.1998L26.666 10.0518V23.1332ZM15.9993 4.12518L24.7167 7.99984L15.9993 11.8745L7.28202 7.99984L15.9993 4.12518Z" fill="#F46B5B"/>
</svg>
