<svg width="32" height="32" viewBox="0 0 32 32" fill="none" xmlns="http://www.w3.org/2000/svg">
<path d="M30 6.62012H2C1.17139 6.62012 0.5 7.292 0.5 8.12012V11.8896C0.5 12.7178 1.17139 13.3896 2 13.3896C3.43896 13.3896 4.60986 14.5605 4.60986 16C4.60986 17.4394 3.43896 18.6103 2 18.6103C1.17139 18.6103 0.5 19.2822 0.5 20.1103V23.8799C0.5 24.708 1.17139 25.3799 2 25.3799H30C30.8286 25.3799 31.5 24.708 31.5 23.8799V20.1103C31.5 19.2822 30.8286 18.6103 30 18.6103C28.561 18.6103 27.3901 17.4394 27.3901 16C27.3901 14.5605 28.561 13.3896 30 13.3896C30.8286 13.3896 31.5 12.7178 31.5 11.8896V8.12012C31.5 7.29199 30.8286 6.62012 30 6.62012ZM28.5 10.5937C26.1328 11.251 24.3901 13.4258 24.3901 16C24.3901 18.5742 26.1328 20.749 28.5 21.4062V22.3799H3.5V21.4062C5.86719 20.749 7.60986 18.5742 7.60986 16C7.60986 13.4258 5.86719 11.251 3.5 10.5937V9.62012H28.5V10.5937Z" fill="#F46B5B"/>
<path d="M21 20.9951C21.8286 20.9951 22.5 20.3232 22.5 19.4951V12.5049C22.5 11.6768 21.8286 11.0049 21 11.0049C20.1714 11.0049 19.5 11.6768 19.5 12.5049V19.4951C19.5 20.3232 20.1714 20.9951 21 20.9951Z" fill="#F46B5B"/>
</svg>
